<?xml version="1.0" encoding="UTF-8"?>
<svg width="700pt" height="700pt" version="1.1" viewBox="0 0 700 700" xmlns="http://www.w3.org/2000/svg" xmlns:xlink="http://www.w3.org/1999/xlink">
 <defs>
  <symbol id="n" overflow="visible">
   <path d="m29.312-1.75c-1.5117 0.78125-3.0898 1.3711-4.7344 1.7656-1.6367 0.40625-3.3398 0.60938-5.1094 0.60938-5.3125 0-9.5273-1.4844-12.641-4.4531-3.1055-2.9688-4.6562-7-4.6562-12.094s1.5508-9.125 4.6562-12.094c3.1133-2.9688 7.3281-4.4531 12.641-4.4531 1.7695 0 3.4727 0.19922 5.1094 0.59375 1.6445 0.39844 3.2227 0.99219 4.7344 1.7812v6.5938c-1.5312-1.0391-3.0391-1.8008-4.5156-2.2812-1.4805-0.48828-3.0391-0.73438-4.6719-0.73438-2.9375 0-5.2461 0.94531-6.9219 2.8281-1.6797 1.875-2.5156 4.4648-2.5156 7.7656 0 3.293 0.83594 5.8828 2.5156 7.7656 1.6758 1.875 3.9844 2.8125 6.9219 2.8125 1.6328 0 3.1914-0.23828 4.6719-0.71875 1.4766-0.48828 2.9844-1.2539 4.5156-2.2969z"/>
  </symbol>
  <symbol id="i" overflow="visible">
   <path d="m21.453-17.406c-0.67969-0.3125-1.3516-0.53906-2.0156-0.6875-0.65625-0.15625-1.3203-0.23438-1.9844-0.23438-1.9688 0-3.4844 0.63281-4.5469 1.8906-1.0547 1.2617-1.5781 3.0703-1.5781 5.4219v11.016h-7.6562v-23.922h7.6562v3.9219c0.97656-1.5625 2.1016-2.7031 3.375-3.4219 1.2812-0.71875 2.8125-1.0781 4.5938-1.0781 0.25 0 0.52344 0.011719 0.82812 0.03125 0.30078 0.023438 0.73438 0.070312 1.2969 0.14062z"/>
  </symbol>
  <symbol id="a" overflow="visible">
   <path d="m27.562-12.031v2.1875h-17.891c0.1875 1.793 0.83203 3.1367 1.9375 4.0312 1.1133 0.89844 2.6719 1.3438 4.6719 1.3438 1.6016 0 3.25-0.23438 4.9375-0.70312 1.6875-0.47656 3.4219-1.2031 5.2031-2.1719v5.8906c-1.8047 0.6875-3.6094 1.2031-5.4219 1.5469-1.8125 0.35156-3.6211 0.53125-5.4219 0.53125-4.3359 0-7.7031-1.0977-10.109-3.2969-2.3984-2.207-3.5938-5.2969-3.5938-9.2656 0-3.9062 1.1758-6.9727 3.5312-9.2031 2.3633-2.2383 5.6094-3.3594 9.7344-3.3594 3.7578 0 6.7695 1.1367 9.0312 3.4062 2.2578 2.2617 3.3906 5.2812 3.3906 9.0625zm-7.8594-2.5312c0-1.457-0.42969-2.6289-1.2812-3.5156-0.84375-0.89453-1.9492-1.3438-3.3125-1.3438-1.4922 0-2.6992 0.41797-3.625 1.25-0.91797 0.83594-1.4922 2.0391-1.7188 3.6094z"/>
  </symbol>
  <symbol id="h" overflow="visible">
   <path d="m14.391-10.766c-1.5938 0-2.793 0.27344-3.5938 0.8125-0.80469 0.54297-1.2031 1.3398-1.2031 2.3906 0 0.96875 0.32031 1.7305 0.96875 2.2812 0.64453 0.54297 1.5469 0.8125 2.7031 0.8125 1.4375 0 2.6445-0.51562 3.625-1.5469 0.98828-1.0312 1.4844-2.3203 1.4844-3.875v-0.875zm11.688-2.8906v13.656h-7.7031v-3.5469c-1.0312 1.4492-2.1875 2.5078-3.4688 3.1719s-2.8398 1-4.6719 1c-2.4805 0-4.4961-0.72266-6.0469-2.1719-1.543-1.4453-2.3125-3.3203-2.3125-5.625 0-2.8125 0.96094-4.8672 2.8906-6.1719 1.9375-1.3125 4.9688-1.9688 9.0938-1.9688h4.5156v-0.60938c0-1.207-0.48047-2.0938-1.4375-2.6562-0.94922-0.5625-2.4375-0.84375-4.4688-0.84375-1.6367 0-3.1562 0.16797-4.5625 0.5-1.4062 0.32422-2.7188 0.8125-3.9375 1.4688v-5.8281c1.6445-0.40625 3.2891-0.70703 4.9375-0.90625 1.6562-0.20703 3.3047-0.3125 4.9531-0.3125 4.3203 0 7.4375 0.85547 9.3438 2.5625 1.9141 1.6992 2.875 4.4609 2.875 8.2812z"/>
  </symbol>
  <symbol id="g" overflow="visible">
   <path d="m12.031-30.719v6.7969h7.875v5.4688h-7.875v10.141c0 1.1172 0.21875 1.8711 0.65625 2.2656 0.4375 0.38672 1.3125 0.57812 2.625 0.57812h3.9375v5.4688h-6.5625c-3.0234 0-5.1641-0.62891-6.4219-1.8906-1.2617-1.2578-1.8906-3.3984-1.8906-6.4219v-10.141h-3.7969v-5.4688h3.7969v-6.7969z"/>
  </symbol>
  <symbol id="f" overflow="visible">
   <path d="m19.953-20.422v-12.812h7.6875v33.234h-7.6875v-3.4531c-1.0547 1.4062-2.2148 2.4375-3.4844 3.0938-1.2734 0.65625-2.7422 0.98438-4.4062 0.98438-2.9492 0-5.3711-1.1719-7.2656-3.5156-1.8867-2.3438-2.8281-5.3594-2.8281-9.0469s0.94141-6.7031 2.8281-9.0469c1.8945-2.3438 4.3164-3.5156 7.2656-3.5156 1.6562 0 3.1172 0.33594 4.3906 1 1.2812 0.65625 2.4453 1.6836 3.5 3.0781zm-5.0469 15.484c1.6445 0 2.8945-0.59766 3.75-1.7969 0.86328-1.1953 1.2969-2.9297 1.2969-5.2031 0-2.2812-0.43359-4.0195-1.2969-5.2188-0.85547-1.1953-2.1055-1.7969-3.75-1.7969-1.625 0-2.8711 0.60156-3.7344 1.7969-0.85547 1.1992-1.2812 2.9375-1.2812 5.2188 0 2.2734 0.42578 4.0078 1.2812 5.2031 0.86328 1.1992 2.1094 1.7969 3.7344 1.7969z"/>
  </symbol>
  <symbol id="e" overflow="visible">
   <path d="m16.406-4.9375c1.6328 0 2.8828-0.59766 3.75-1.7969 0.86328-1.1953 1.2969-2.9297 1.2969-5.2031 0-2.2812-0.43359-4.0195-1.2969-5.2188-0.86719-1.1953-2.1172-1.7969-3.75-1.7969-1.6367 0-2.8906 0.60547-3.7656 1.8125-0.875 1.1992-1.3125 2.9336-1.3125 5.2031 0 2.2617 0.4375 3.9961 1.3125 5.2031 0.875 1.1992 2.1289 1.7969 3.7656 1.7969zm-5.0781-15.484c1.0508-1.3945 2.2188-2.4219 3.5-3.0781 1.2812-0.66406 2.7539-1 4.4219-1 2.9453 0 5.3672 1.1719 7.2656 3.5156 1.8945 2.3438 2.8438 5.3594 2.8438 9.0469s-0.94922 6.7031-2.8438 9.0469c-1.8984 2.3438-4.3203 3.5156-7.2656 3.5156-1.668 0-3.1406-0.33594-4.4219-1s-2.4492-1.6914-3.5-3.0781v3.4531h-7.6562v-33.234h7.6562z"/>
  </symbol>
  <symbol id="d" overflow="visible">
   <path d="m0.53125-23.922h7.6562l6.4219 16.234 5.4688-16.234h7.6562l-10.062 26.188c-1.0117 2.6641-2.1953 4.5234-3.5469 5.5781-1.3438 1.0625-3.1211 1.5938-5.3281 1.5938h-4.4219v-5.0156h2.3906c1.3008 0 2.2422-0.21094 2.8281-0.625 0.59375-0.40625 1.0547-1.1484 1.3906-2.2188l0.20312-0.65625z"/>
  </symbol>
  <symbol id="c" overflow="visible">
   <path d="m0.21875-31.891h29.391v6.2188h-10.578v25.672h-8.2188v-25.672h-10.594z"/>
  </symbol>
  <symbol id="b" overflow="visible">
   <path d="m15.062-19.031c-1.6992 0-2.9961 0.60938-3.8906 1.8281-0.88672 1.2188-1.3281 2.9766-1.3281 5.2656 0 2.293 0.44141 4.0469 1.3281 5.2656 0.89453 1.2188 2.1914 1.8281 3.8906 1.8281 1.6641 0 2.9375-0.60938 3.8125-1.8281 0.88281-1.2188 1.3281-2.9727 1.3281-5.2656 0-2.2891-0.44531-4.0469-1.3281-5.2656-0.875-1.2188-2.1484-1.8281-3.8125-1.8281zm0-5.4688c4.1133 0 7.3281 1.1094 9.6406 3.3281s3.4688 5.2969 3.4688 9.2344c0 3.9297-1.1562 7.0078-3.4688 9.2344-2.3125 2.2188-5.5273 3.3281-9.6406 3.3281-4.1367 0-7.3711-1.1094-9.7031-3.3281-2.3242-2.2266-3.4844-5.3047-3.4844-9.2344 0-3.9375 1.1602-7.0156 3.4844-9.2344 2.332-2.2188 5.5664-3.3281 9.7031-3.3281z"/>
  </symbol>
  <symbol id="m" overflow="visible">
   <path d="m2.4531-31.891h26.812v4.9688l-17.109 20.703h17.594v6.2188h-27.781v-4.9844l17.109-20.688h-16.625z"/>
  </symbol>
  <symbol id="l" overflow="visible">
   <path d="m4.0156-31.891h8.2188v31.891h-8.2188z"/>
  </symbol>
  <symbol id="k" overflow="visible">
   <path d="m23-23.172v6.2344c-1.0312-0.71875-2.0742-1.2422-3.125-1.5781-1.043-0.34375-2.125-0.51562-3.25-0.51562-2.1367 0-3.8047 0.625-5 1.875-1.1875 1.2422-1.7812 2.9805-1.7812 5.2188 0 2.2305 0.59375 3.9688 1.7812 5.2188 1.1953 1.25 2.8633 1.875 5 1.875 1.1953 0 2.332-0.17578 3.4062-0.53125 1.0703-0.36328 2.0625-0.89453 2.9688-1.5938v6.2656c-1.1875 0.4375-2.4023 0.76562-3.6406 0.98438-1.2305 0.22656-2.4648 0.34375-3.7031 0.34375-4.3125 0-7.6875-1.1094-10.125-3.3281s-3.6562-5.2969-3.6562-9.2344c0-3.9453 1.2188-7.0234 3.6562-9.2344 2.4375-2.2188 5.8125-3.3281 10.125-3.3281 1.25 0 2.4844 0.10938 3.7031 0.32812s2.4297 0.55469 3.6406 1z"/>
  </symbol>
  <symbol id="j" overflow="visible">
   <path d="m27.734-14.562v14.562h-7.7031v-11.156c0-2.0625-0.046875-3.4844-0.14062-4.2656-0.085937-0.78125-0.24219-1.3594-0.46875-1.7344-0.30469-0.5-0.71094-0.88281-1.2188-1.1562-0.51172-0.28125-1.0938-0.42188-1.75-0.42188-1.5938 0-2.8516 0.61719-3.7656 1.8438-0.90625 1.2305-1.3594 2.9375-1.3594 5.125v11.766h-7.6562v-23.922h7.6562v3.5c1.1445-1.3945 2.3633-2.4219 3.6562-3.0781 1.3008-0.66406 2.7383-1 4.3125-1 2.7578 0 4.8516 0.85156 6.2812 2.5469 1.4375 1.6875 2.1562 4.1523 2.1562 7.3906z"/>
  </symbol>
 </defs>
 <g>
  <path d="m78.75 530.29h53.551c17.633 0 35.359 1.7656 52.684 5.2578l82.52 16.711c14.227 2.8516 28.594 4.2891 42.867 4.2891 5.5391 0 11.07-0.21094 16.562-0.64844l185.49-13.816c7.5781-0.55078 14.262-5.1875 17.43-12.094 3.1758-6.9297 2.3359-15.043-2.1797-21.148-4.75-6.4766-11.988-12.117-21.008-16.344-8.3984-3.8398-17.43-5.957-25.418-5.957h-105c-23.484 0-45.281-3.8047-63.062-11.008l-36.191-14.824 2.625-1.1367-6.957-16.066-2.5469 1.1094c-6.5703 2.7656-10.789 9.1797-10.754 16.309 0.035157 7.1406 4.3242 13.5 10.973 16.223l36.297 14.605c20.117 8.1562 43.531 12.277 69.605 12.277h105c5.4531 0 12.074 1.5938 18.07 4.332 6.2031 2.9141 11.262 6.7539 14.27 10.852 1.043 1.418 0.67188 2.7734 0.35938 3.4648-0.30469 0.67188-1.0781 1.8203-2.8086 1.9531l-185.54 13.816c-18.105 1.4258-36.496 0.28906-54.637-3.3516l-82.52-16.711c-18.473-3.7188-37.371-5.6016-56.148-5.6016h-44.789v-69.562h23.188c8.7344 0 17.281-2.5469 24.648-7.3242 28.113-17.965 61.793-15.793 79.301-12.934 7.0508 1.2148 14.27 1.0938 21.473-0.39453 2.5547-0.50781 5.0039-1.2148 7.4648-2.0312l48.266-16.203c8.7148-2.9922 18.418-2.3008 26.68 1.9062l2.0469 1.0234c2.9766 1.5156 4.1641 3.875 4.6289 5.6016 0.67188 2.4766 0.28125 5.1992-1.1641 7.4648-0.83203 1.375-2.1445 2.4336-3.9531 3.1953l-47.242 19.949 6.7969 16.117 47.199-19.922c5.2148-2.1602 9.4336-5.7148 12.074-10.105 4-6.2656 5.1523-14.027 3.1758-21.289-1.9844-7.2539-6.7969-13.152-13.641-16.625l-2.0469-1.0234c-12.383-6.3008-27.039-7.332-40.172-2.8516l-48.211 16.188c-1.7422 0.57812-3.4922 1.1016-5.3477 1.4805-5.1172 1.043-10.176 1.1289-15.129 0.28906-20.039-3.3164-58.609-5.6523-91.672 15.469-4.5781 2.9648-9.8359 4.543-15.18 4.543l-31.934-0.007812c-4.8398 0-8.75 3.9102-8.75 8.75v87.062c0 4.8398 3.9102 8.75 8.75 8.75z"/>
  <path d="m197.45 361.83c10.062 3.8047 20.535 5.6953 30.977 5.6953 12.242 0 24.465-2.6094 35.953-7.7969 21.305-9.625 37.59-26.957 45.852-48.824 8.2617-21.867 7.5078-45.633-2.1016-66.93-9.625-21.305-26.957-37.582-48.824-45.84-4.5234-1.6992-9.5742 0.57031-11.277 5.0938l-24.734 65.477-65.477-24.746c-4.5156-1.6992-9.5742 0.57031-11.277 5.0938-8.2617 21.859-7.5156 45.633 2.0898 66.93 9.625 21.305 26.957 37.582 48.824 45.84zm-37.137-98.219 64.977 24.562c2.1719 0.82422 4.5781 0.75391 6.6953-0.21094 2.1172-0.94531 3.7695-2.7109 4.5859-4.8828l24.551-64.977c13.711 7.2188 24.586 18.727 31.062 33.074 7.6992 17.035 8.2969 36.051 1.6797 53.543-6.6133 17.492-19.637 31.367-36.672 39.059-17.047 7.6914-36.059 8.2773-53.551 1.6719-17.492-6.6055-31.367-19.625-39.059-36.672-6.4766-14.352-7.918-30.102-4.2617-45.168z"/>
  <path d="m204.92 251.8c3.5273 0 6.8594-2.1523 8.1914-5.6523l27.844-73.668c0.82422-2.1719 0.74219-4.5781-0.21094-6.6953-0.94531-2.1172-2.7109-3.7695-4.8828-4.5859-21.867-8.2695-45.641-7.5078-66.938 2.1016-21.305 9.625-37.582 26.957-45.84 48.816-1.707 4.5234 0.57031 9.5742 5.0938 11.277l73.668 27.844c1.0156 0.38672 2.0664 0.55859 3.0977 0.55859zm-61.879-41.484c14.883-28.184 47.25-42.84 78.25-35.324l-21.465 56.777-56.789-21.453z"/>
  <path d="m470.02 89.891v-0.015625l-28.156-44.301-23.457-36.934c-2.5039-3.9453-6.3867-6.6758-10.953-7.6914-4.6016-1.0586-9.2656-0.19141-13.195 2.3086l-88.629 56.316c-3.9453 2.5039-6.6758 6.3867-7.6914 10.953s-0.20312 9.2578 2.3086 13.195l23.441 36.898v0.035156l0.042968 0.035156 28.121 44.266 23.457 36.934c2.5039 3.9453 6.3867 6.6758 10.953 7.6914 1.2773 0.28906 2.5742 0.42969 3.8398 0.42969 3.2891 0 6.5117-0.92578 9.3438-2.7305l88.637-56.305c8.1445-5.1992 10.551-16.031 5.3711-24.16l-23.449-36.918zm-66.387-71.871 18.77 29.547-7.9023 5.0156c-4.0781 2.5898-5.2852 7.9883-2.6953 12.074 1.6641 2.625 4.4961 4.0586 7.3945 4.0586 1.6094 0 3.2305-0.4375 4.6797-1.3633l7.9023-5.0156 18.77 29.547-88.629 56.297-18.77-29.539 57.016-36.215c4.0781-2.5898 5.2852-7.9961 2.6953-12.074-2.5898-4.0781-8.0078-5.2852-12.074-2.6953l-57.016 36.215-18.77-29.547 88.629-56.316zm-13.555 174.48-18.77-29.547 88.629-56.297 18.77 29.547-88.629 56.305z"/>
  <path d="m339.17 88.461c1.6094 0 3.2305-0.4375 4.6797-1.3633l14.77-9.3789c4.0781-2.5898 5.2852-7.9961 2.6953-12.074s-7.9961-5.3008-12.074-2.6953l-14.77 9.3789c-4.0781 2.5898-5.2852 7.9961-2.6953 12.074 1.6641 2.625 4.4961 4.0586 7.3945 4.0586z"/>
  <path d="m377.39 107.27-14.77 9.3789c-4.0859 2.5898-5.2852 7.9961-2.6953 12.074 1.6641 2.625 4.4961 4.0586 7.3945 4.0586 1.6094 0 3.2305-0.44531 4.6797-1.3633l14.77-9.3789c4.0859-2.5898 5.2852-7.9961 2.6953-12.074-2.5898-4.0781-7.9961-5.2852-12.074-2.6953z"/>
  <path d="m417.62 154.27c-2.5898-4.0781-7.9961-5.2852-12.074-2.6953l-14.77 9.3789c-4.0859 2.5898-5.2852 7.9961-2.6953 12.074 1.6641 2.625 4.4961 4.0586 7.3945 4.0586 1.6094 0 3.2305-0.44531 4.6797-1.3633l14.77-9.3789c4.0859-2.5898 5.2852-7.9961 2.6953-12.074z"/>
  <path d="m183.75 122.5c0.75391 0 1.5039-0.097656 2.25-0.28906 2.4219-0.64844 4.4609-2.3008 5.582-4.5508l35-70c2.1602-4.3242 0.41016-9.582-3.9102-11.742-4.3125-2.1523-9.5742-0.41016-11.742 3.9102l-30.562 61.137-18.008-12.004c-4.043-2.6758-9.4688-1.6016-12.137 2.4219-2.6875 4.0234-1.6016 9.4492 2.4219 12.137l26.25 17.5c1.4531 0.96094 3.1406 1.4688 4.8555 1.4688z"/>
  <path d="m380.62 236.25c-16.887 0-30.625 13.738-30.625 30.625s13.738 30.625 30.625 30.625 30.625-13.738 30.625-30.625-13.738-30.625-30.625-30.625zm0 43.75c-7.2344 0-13.125-5.8906-13.125-13.125s5.8906-13.125 13.125-13.125 13.125 5.8906 13.125 13.125-5.8906 13.125-13.125 13.125z"/>
  <path d="m78.75 363.12c0 16.887 13.738 30.625 30.625 30.625s30.625-13.738 30.625-30.625-13.738-30.625-30.625-30.625-30.625 13.738-30.625 30.625zm43.75 0c0 7.2344-5.8906 13.125-13.125 13.125s-13.125-5.8906-13.125-13.125 5.8906-13.125 13.125-13.125 13.125 5.8906 13.125 13.125z"/>
  <path d="m573.12 87.5c-16.887 0-30.625 13.738-30.625 30.625s13.738 30.625 30.625 30.625 30.625-13.738 30.625-30.625-13.738-30.625-30.625-30.625zm0 43.75c-7.2344 0-13.125-5.8906-13.125-13.125s5.8906-13.125 13.125-13.125 13.125 5.8906 13.125 13.125-5.8906 13.125-13.125 13.125z"/>
  <path d="m502.95 445.09c4.6719 1.0859 9.3711-1.8281 10.473-6.5117 1.1211-4.6992-1.7852-9.4141-6.4922-10.527-0.76172-0.19141-12.32-2.7812-27.246 1.1289-11.578-10.195-23.066-13.062-23.828-13.246-4.6445-1.1289-9.3359 1.7656-10.484 6.4297-1.1445 4.6641 1.7227 9.3984 6.3789 10.578 0.36719 0.085938 4.3594 1.25 9.4336 4.3125-3.6211 2.2734-7.2695 4.9961-10.867 8.3477-3.5352 3.2891-3.7344 8.8281-0.4375 12.363 1.7148 1.8477 4.0586 2.7812 6.3945 2.7812 2.1367 0 4.2773-0.77734 5.9688-2.3555 4.1719-3.8867 8.4102-6.668 12.512-8.7227 2.7734 3.7031 5.3711 8.043 7.375 13.449 1.3047 3.5273 4.6445 5.7031 8.207 5.7031 1.0078 0 2.0391-0.17578 3.0469-0.54297 4.5312-1.6719 6.8438-6.7188 5.1641-11.242-1.7148-4.6289-3.7617-8.7148-5.9922-12.398 5.9414-0.47266 9.9648 0.33984 10.402 0.4375z"/>
  <path d="m415.83 360.34 42.098 11.926c0.79688 0.22656 1.6016 0.33203 2.3906 0.33203 3.8164 0 7.3164-2.5117 8.4102-6.3711l11.926-42.098c1.3125-4.6445-1.3828-9.4844-6.0273-10.797l-42.086-11.926c-4.6289-1.3398-9.4844 1.375-10.797 6.0273l-11.934 42.098c-0.62891 2.2305-0.35938 4.6211 0.77734 6.6484 1.1289 2.0195 3.0195 3.5156 5.2578 4.1562zm20.352-39.707 25.254 7.1562-7.1562 25.262-25.254-7.1562z"/>
  <path d="m500.39 296.02c-2.0195 1.1289-3.5156 3.0195-4.1562 5.2578l-19.094 67.348c-0.62891 2.2305-0.35156 4.6211 0.77734 6.6484 1.1289 2.0312 3.0273 3.5156 5.2578 4.1562l42.098 11.926c0.79688 0.22656 1.6016 0.33203 2.3906 0.33203 3.8164 0 7.3164-2.5117 8.4102-6.3711l19.094-67.34c1.3125-4.6445-1.3828-9.4844-6.0273-10.797l-42.098-11.934c-2.1953-0.62109-4.6094-0.35938-6.6484 0.77734zm35.551 25.609-14.324 50.504-25.262-7.1562 14.324-50.504z"/>
  <path d="m595.01 410.78c3.8164 0 7.3164-2.5117 8.4102-6.3711l26.25-92.602c0.62891-2.2305 0.35156-4.6211-0.77734-6.6484-1.1289-2.0312-3.0195-3.5156-5.2578-4.1562l-42.098-11.926c-4.6094-1.3398-9.4766 1.375-10.797 6.0273l-26.25 92.602c-0.62891 2.2305-0.35156 4.6211 0.77734 6.6484 1.1289 2.0312 3.0195 3.5156 5.2578 4.1562l42.098 11.926c0.79688 0.22656 1.6016 0.33203 2.3906 0.33203zm-31.297-26.715 21.48-75.766 25.262 7.1562-21.48 75.766z"/>
  <use x="70" y="691.25" xlink:href="#n"/>
  <use x="102.109375" y="691.25" xlink:href="#i"/>
  <use x="123.683594" y="691.25" xlink:href="#a"/>
  <use x="153.355469" y="691.25" xlink:href="#h"/>
  <use x="182.878906" y="691.25" xlink:href="#g"/>
  <use x="203.792969" y="691.25" xlink:href="#a"/>
  <use x="233.464844" y="691.25" xlink:href="#f"/>
  <use x="280.011719" y="691.25" xlink:href="#e"/>
  <use x="311.328125" y="691.25" xlink:href="#d"/>
  <use x="355.078125" y="691.25" xlink:href="#c"/>
  <use x="384.921875" y="691.25" xlink:href="#b"/>
  <use x="414.980469" y="691.25" xlink:href="#m"/>
  <use x="446.703125" y="691.25" xlink:href="#l"/>
  <use x="462.980469" y="691.25" xlink:href="#k"/>
  <use x="488.914062" y="691.25" xlink:href="#b"/>
  <use x="518.972656" y="691.25" xlink:href="#j"/>
 </g>
</svg>
